# xmcd CD database file
#
# Track frame offsets:
#	150
#	18115
#	34932
#	57812
#	78912
#	97595
#	113645
#	129837
#	149045
#	169127
#	183507
#	200270
#	222130
#	238970
#	259600
#	280545
#
# Disc length: 3973 seconds
#
# Revision: 9
# Processed by: cddbd v1.5.1PL0 Copyright (c) Steve Scherf et al.
# Submitted via: CDex 1.51
#
DISCID=d10f8310
DTITLE=????? - ???????????
DYEAR=1996
DGENRE=New Age
TTITLE0=??????
TTITLE1=?????
TTITLE2=????????
TTITLE3=???????
TTITLE4=???
TTITLE5=????????
TTITLE6=????
TTITLE7=?????
TTITLE8=ANAK
TTITLE9=????????
TTITLE10=???????
TTITLE11=??????
TTITLE12=?
TTITLE13=??????
TTITLE14=???
TTITLE15=???????
EXTD=YEAR: 1996
EXTT0=
EXTT1=
EXTT2=
EXTT3=
EXTT4=
EXTT5=
EXTT6=
EXTT7=
EXTT8=
EXTT9=
EXTT10=
EXTT11=
EXTT12=
EXTT13=
EXTT14=
EXTT15=
PLAYORDER=
